<mxfile host="app.diagrams.net" modified="2024-06-24T12:36:49.055Z" agent="Mozilla/5.0 (X11; Linux x86_64) AppleWebKit/537.36 (KHTML, like Gecko) Chrome/126.0.0.0 Safari/537.36" version="24.6.1" etag="Bik0-Eb1QcBAwFZXM8EU" type="github">
  <diagram name="PÃ¡gina-1" id="XnMhf6mIaxE3xV7tA2-v">
    <mxGraphModel>
      <root>
        <mxCell id="0" />
        <mxCell id="1" parent="0" />
      </root>
    </mxGraphModel>
  </diagram>
</mxfile>
